# xmcd
#
# Track frame offsets:
#	150
#	13158
#	30170
#	42897
#	55405
#	68861
#	82570
#	93703
#	104228
#	118321
#	134524
#	150178
#	164978
#	181193
#	200255
#
# Disc length: 2836 seconds
# Revision: 0
# Processed by: cddbd v1.4PL0 Copyright (c) Steve Scherf et al.
# Submitted via: cdrLabel 6.0
#
DISCID=c90b120f
DTITLE=Blues At Newport 1963
DYEAR=1900
DGENRE=
TTITLE0=Brownie McGee and Sonny Terry   Long Gone
TTITLE1=Brownie McGee and Sonny Terry   Key To The Highway
TTITLE2=Mississippi John Hurt   Candy Man
TTITLE3=Mississippi John Hurt   Trouble, I've Had It All My Days
TTITLE4=Mississippi John Hurt   Frankie
TTITLE5=John Hammond   No Money Down
TTITLE6=John Hammond   Me And The Devil
TTITLE7=John Hammond   Tallahassee Woman
TTITLE8=Rev. Gary Davis   Samson And Delillah
TTITLE9=Rev. Gary Davis   You Got To Move
TTITLE10=John Lee Hooker   Sometimes You Make Me Feel So Bad
TTITLE11=John Lee Hooker   Bus Station Blues
TTITLE12=Dave Van Ronk   That Will Never Happen No More
TTITLE13=Dave Van Ronk   Gambler's Blues
TTITLE14=Brownie McGee And Sonny Terry   Walk On
EXTD=
EXTT0=
EXTT1=
EXTT2=
EXTT3=
EXTT4=
EXTT5=
EXTT6=
EXTT7=
EXTT8=
EXTT9=
EXTT10=
EXTT11=
EXTT12=
EXTT13=
EXTT14=
PLAYORDER=
